# xmcd CD database file generated by Grip 3.3.1
# 
# Track frame offsets:
#       150
#       27867
#       53308
#       76635
#       109997
#       121938
#       139833
#       169178
#       189469
# 
# Disc length: 3075 seconds
# 
# Revision: 1
# Processed by: cddbd v1.5.2PL0 Copyright (c) Steve Scherf et al.
# Submitted via: Grip 3.3.1
# 
DISCID=680c0109
DTITLE=John Martyn - Live in Concert at the Cambridge Folk Festival
DYEAR=2003
DGENRE=Blues
TTITLE0=Johnny too bad
TTITLE1=Sweet little Mystery
TTITLE2=Big Muff
TTITLE3=Solid Air
TTITLE4=Jelly Roll Blues
TTITLE5=May you never
TTITLE6=Mad Dog Days
TTITLE7=Fisherman's Dream
TTITLE8=Dealer - Outside in
EXTD=YEAR: 2003
EXTT0=
EXTT1=
EXTT2=
EXTT3=
EXTT4=
EXTT5=
EXTT6=
EXTT7=
EXTT8=
PLAYORDER=
